<svg width="32" height="32" viewBox="0 0 64.386 62.167" fill="none" xmlns="http://www.w3.org/2000/svg">
  <path d="M 22.825 29.402 C 23.647 26.333 26.801 23.18 29.87 22.357 L 48.999 17.231 C 52.067 16.409 53.888 18.229 53.065 21.298 L 47.939 40.427 C 47.117 43.495 43.963 46.649 40.894 47.471 L 21.765 52.597 C 18.697 53.42 16.876 51.599 17.699 48.531 L 22.825 29.402 Z" fill="#A3E635" fill-opacity="0.5"></path>
  <path d="M 15.156 21.733 C 15.978 18.665 19.132 15.511 22.201 14.688 L 41.33 9.562 C 44.398 8.74 46.219 10.561 45.396 13.629 L 40.27 32.758 C 39.448 35.826 36.294 38.98 33.226 39.802 L 14.097 44.929 C 11.028 45.751 9.208 43.93 10.03 40.862 L 15.156 21.733 Z" fill="#A3E635"></path>
</svg>